<?xml version="1.0" encoding="UTF-8" standalone="no"?>
<!-- Created with Inkscape (http://www.inkscape.org/) -->

<svg
   width="32mm"
   height="40mm"
   viewBox="0 0 32 40"
   version="1.1"
   id="svg1712"
   inkscape:version="1.1 (c68e22c387, 2021-05-23)"
   sodipodi:docname="kvensrose-outline-conversion.svg"
   xmlns:inkscape="http://www.inkscape.org/namespaces/inkscape"
   xmlns:sodipodi="http://sodipodi.sourceforge.net/DTD/sodipodi-0.dtd"
   xmlns="http://www.w3.org/2000/svg"
   xmlns:svg="http://www.w3.org/2000/svg">
  <sodipodi:namedview
     id="namedview1714"
     pagecolor="#ffffff"
     bordercolor="#999999"
     borderopacity="1"
     inkscape:pageshadow="0"
     inkscape:pageopacity="0"
     inkscape:pagecheckerboard="0"
     inkscape:document-units="mm"
     showgrid="false"
     inkscape:zoom="3.8353177"
     inkscape:cx="60.620793"
     inkscape:cy="75.613032"
     inkscape:window-width="1920"
     inkscape:window-height="1028"
     inkscape:window-x="-6"
     inkscape:window-y="-6"
     inkscape:window-maximized="1"
     inkscape:current-layer="layer1" />
  <defs
     id="defs1709" />
  <g
     inkscape:label="Layer 1"
     inkscape:groupmode="layer"
     id="layer1">
    <path
       d="M 2.9071847,0.04455287 H 29.092814 c 1.566572,0 2.848191,1.27316443 2.848191,2.82939403 V 37.126053 c 0,1.556229 -1.281619,2.829394 -2.848191,2.829394 H 2.9071847 c -1.5665389,0 -2.84818961,-1.273165 -2.84818961,-2.829394 V 2.8739469 c 0,-1.5562296 1.28165071,-2.82939403 2.84818961,-2.82939403 z"
       style="fill:none;stroke:#1b1918;stroke-width:0.0891061;stroke-linecap:butt;stroke-linejoin:miter;stroke-dasharray:none"
       id="path1281" />
    <g
       aria-label="KVENROSE"
       id="text1450"
       style="font-size:3.77169px;stroke-width:0.314307">
      <path
         d="m 7.9639178,34.424807 v 0.788837 l 0.8947314,-0.933099 q 0.064457,-0.06753 0.1089638,-0.09975 0.046041,-0.03223 0.1212415,-0.03223 0.098221,0 0.1580743,0.05832 0.061388,0.05678 0.061388,0.139658 0,0.09975 -0.1028251,0.197976 l -0.5540274,0.524868 0.6384361,0.914683 q 0.067527,0.09515 0.1012903,0.167282 0.033763,0.0706 0.033763,0.138124 0,0.0752 -0.059853,0.130449 -0.058319,0.05525 -0.1596091,0.05525 -0.095152,0 -0.1550049,-0.0399 -0.059853,-0.04144 -0.1012903,-0.108964 -0.041437,-0.06753 -0.073666,-0.122776 L 8.3368504,35.374788 7.9639178,35.732374 v 0.465014 q 0,0.141193 -0.064457,0.210255 -0.064458,0.06753 -0.1657478,0.06753 -0.058319,0 -0.1120333,-0.03069 -0.053714,-0.03069 -0.082874,-0.08287 -0.021486,-0.04297 -0.02609,-0.09976 -0.0046,-0.05678 -0.0046,-0.164213 v -1.672826 q 0,-0.138123 0.059853,-0.207184 0.061388,-0.06906 0.1657478,-0.06906 0.102825,0 0.1657478,0.06906 0.064457,0.06753 0.064457,0.207184 z"
         style="font-size:3.14307px;font-family:'Arial Rounded MT Bold';fill:#1b1918;stroke-width:0.0831604"
         id="path2436" />
      <path
         d="m 10.164681,34.447828 0.509521,1.508612 0.511056,-1.519355 q 0.0399,-0.119707 0.05985,-0.165748 0.01995,-0.04758 0.06599,-0.08441 0.04604,-0.03837 0.125846,-0.03837 0.05832,0 0.107429,0.02916 0.05064,0.02916 0.07827,0.07827 0.02916,0.04758 0.02916,0.09669 0,0.03376 -0.0092,0.07367 -0.0092,0.03837 -0.02302,0.07673 -0.01381,0.03683 -0.02762,0.07673 l -0.54482,1.470245 q -0.02916,0.08441 -0.05832,0.161144 -0.02916,0.0752 -0.06753,0.133519 -0.03837,0.05678 -0.102825,0.09362 -0.06292,0.03683 -0.155005,0.03683 -0.09208,0 -0.15654,-0.03683 -0.06292,-0.0353 -0.102825,-0.09362 -0.03837,-0.05985 -0.06753,-0.135054 -0.02916,-0.0752 -0.05832,-0.159609 L 9.7426376,34.59209 q -0.013812,-0.0399 -0.029159,-0.07827 -0.013812,-0.03837 -0.024555,-0.08287 -0.00921,-0.04451 -0.00921,-0.0752 0,-0.07827 0.062923,-0.142727 0.062923,-0.06446 0.1580743,-0.06446 0.1166371,0 0.1642131,0.07213 0.04911,0.0706 0.09976,0.227136 z"
         style="font-size:3.14307px;font-family:'Arial Rounded MT Bold';fill:#1b1918;stroke-width:0.0831604"
         id="path2438" />
      <path
         d="m 13.476568,34.538375 h -1.026716 v 0.552493 h 0.945377 q 0.104359,0 0.155005,0.04758 0.05218,0.04604 0.05218,0.122776 0,0.07673 -0.05065,0.125846 -0.05064,0.04758 -0.156539,0.04758 h -0.945377 v 0.639971 h 1.062014 q 0.107429,0 0.161144,0.05064 0.05525,0.04911 0.05525,0.131985 0,0.0798 -0.05525,0.130449 -0.05372,0.04911 -0.161144,0.04911 h -1.238505 q -0.148866,0 -0.214858,-0.06599 -0.06446,-0.06599 -0.06446,-0.213324 v -1.691242 q 0,-0.09822 0.02916,-0.159609 0.02916,-0.06292 0.09055,-0.09055 0.06292,-0.02916 0.159609,-0.02916 h 1.203207 q 0.108964,0 0.161144,0.04911 0.05371,0.04758 0.05371,0.125846 0,0.0798 -0.05371,0.128915 -0.05218,0.04758 -0.161144,0.04758 z"
         style="font-size:3.14307px;font-family:'Arial Rounded MT Bold';fill:#1b1918;stroke-width:0.0831604"
         id="path2440" />
      <path
         d="m 14.684378,34.421738 0.876315,1.325983 V 34.40946 q 0,-0.130449 0.05525,-0.194907 0.05678,-0.06599 0.151935,-0.06599 0.09822,0 0.155005,0.06599 0.05678,0.06446 0.05678,0.194907 v 1.769512 q 0,0.296197 -0.245552,0.296197 -0.06139,0 -0.110499,-0.01842 -0.04911,-0.01688 -0.09208,-0.05525 -0.04297,-0.03837 -0.07981,-0.08901 -0.03683,-0.05218 -0.07367,-0.105894 l -0.854829,-1.310636 v 1.318309 q 0,0.128915 -0.05985,0.194907 -0.05985,0.06599 -0.15347,0.06599 -0.09669,0 -0.155005,-0.06599 -0.05832,-0.06753 -0.05832,-0.194907 v -1.735748 q 0,-0.110499 0.02456,-0.173421 0.02916,-0.06906 0.09669,-0.112034 0.06753,-0.04451 0.145797,-0.04451 0.06139,0 0.104359,0.01995 0.04451,0.01995 0.07673,0.05371 0.03376,0.03376 0.06753,0.08748 0.0353,0.05371 0.07213,0.112033 z"
         style="font-size:3.14307px;font-family:'Arial Rounded MT Bold';fill:#1b1918;stroke-width:0.0831604"
         id="path2442" />
      <path
         d="m 17.090791,35.474544 h -0.159609 v 0.722844 q 0,0.142728 -0.06292,0.210255 -0.06292,0.06753 -0.164213,0.06753 -0.108964,0 -0.168817,-0.0706 -0.05985,-0.0706 -0.05985,-0.207185 v -1.731144 q 0,-0.147331 0.06599,-0.213323 0.06599,-0.06599 0.213323,-0.06599 h 0.741261 q 0.153471,0 0.262434,0.01381 0.108964,0.01228 0.196442,0.05218 0.105895,0.04451 0.187234,0.12738 0.08134,0.08287 0.122776,0.193373 0.04297,0.108963 0.04297,0.23174 0,0.251691 -0.142727,0.402091 -0.141193,0.150401 -0.429717,0.213324 0.121241,0.06446 0.23174,0.190303 0.110498,0.125846 0.196442,0.268573 0.08748,0.141193 0.135054,0.256295 0.04911,0.113568 0.04911,0.15654 0,0.04451 -0.02916,0.08901 -0.02763,0.04297 -0.07674,0.06753 -0.04911,0.02609 -0.113568,0.02609 -0.07674,0 -0.128915,-0.03683 -0.05218,-0.0353 -0.09055,-0.09055 -0.03683,-0.05525 -0.10129,-0.162678 l -0.18263,-0.303871 q -0.09822,-0.167283 -0.17649,-0.254761 -0.07673,-0.08748 -0.15654,-0.119707 -0.07981,-0.03223 -0.201046,-0.03223 z m 0.260899,-0.945377 h -0.420508 v 0.618485 h 0.408231 q 0.164213,0 0.276246,-0.02763 0.112033,-0.02916 0.170352,-0.09669 0.05985,-0.06906 0.05985,-0.188768 0,-0.09362 -0.04757,-0.164213 -0.04758,-0.07213 -0.131985,-0.107429 -0.0798,-0.03376 -0.314614,-0.03376 z"
         style="font-size:3.14307px;font-family:'Arial Rounded MT Bold';fill:#1b1918;stroke-width:0.0831604"
         id="path2444" />
      <path
         d="m 19.728944,34.148561 q 0.349912,0 0.600069,0.142727 0.251691,0.141193 0.380606,0.403627 0.128915,0.260899 0.128915,0.613881 0,0.260899 -0.0706,0.474223 -0.0706,0.213323 -0.211789,0.369863 -0.141192,0.15654 -0.346842,0.239414 -0.20565,0.08287 -0.471154,0.08287 -0.263969,0 -0.472688,-0.08441 -0.208719,-0.08594 -0.348377,-0.240948 -0.139658,-0.155005 -0.211789,-0.372933 -0.0706,-0.217928 -0.0706,-0.471154 0,-0.259364 0.07367,-0.475757 0.0752,-0.216393 0.216393,-0.368329 0.141193,-0.151935 0.343773,-0.23174 0.202581,-0.08134 0.460411,-0.08134 z m 0.647644,1.157165 q 0,-0.247087 -0.0798,-0.428181 -0.07981,-0.181095 -0.228671,-0.273177 -0.147331,-0.09362 -0.339169,-0.09362 -0.136588,0 -0.253226,0.05218 -0.115102,0.05065 -0.199511,0.148866 -0.08287,0.09822 -0.131984,0.251691 -0.04758,0.151935 -0.04758,0.342238 0,0.191838 0.04758,0.346843 0.04911,0.155005 0.136588,0.25783 0.08901,0.10129 0.202581,0.151936 0.115102,0.05065 0.251691,0.05065 0.174956,0 0.320753,-0.08748 0.147331,-0.08748 0.233274,-0.270108 0.08748,-0.182629 0.08748,-0.449668 z"
         style="font-size:3.14307px;font-family:'Arial Rounded MT Bold';fill:#1b1918;stroke-width:0.0831604"
         id="path2446" />
      <path
         d="m 22.938007,35.761533 q 0,0.204115 -0.105895,0.366794 -0.104359,0.162678 -0.30694,0.25476 -0.202581,0.09208 -0.480362,0.09208 -0.33303,0 -0.549423,-0.125845 -0.153471,-0.09055 -0.250157,-0.240948 -0.09515,-0.151936 -0.09515,-0.294663 0,-0.08287 0.05678,-0.141193 0.05832,-0.05985 0.147331,-0.05985 0.07213,0 0.121242,0.04604 0.05065,0.04604 0.08594,0.136588 0.04297,0.10743 0.09208,0.179561 0.05064,0.07213 0.141193,0.119706 0.09055,0.04604 0.237878,0.04604 0.202581,0 0.328427,-0.09362 0.12738,-0.09515 0.12738,-0.236345 0,-0.112033 -0.06906,-0.181094 -0.06753,-0.0706 -0.17649,-0.10743 -0.10743,-0.03683 -0.288524,-0.07827 -0.242483,-0.05678 -0.406696,-0.131985 -0.162679,-0.07673 -0.259365,-0.207185 -0.09515,-0.131984 -0.09515,-0.326891 0,-0.185699 0.101291,-0.329961 0.10129,-0.144262 0.293128,-0.220997 0.191838,-0.07827 0.451202,-0.07827 0.207185,0 0.357586,0.05218 0.151935,0.05064 0.251691,0.136588 0.09976,0.08441 0.145797,0.178026 0.04604,0.09362 0.04604,0.182629 0,0.08134 -0.05832,0.147332 -0.05678,0.06446 -0.142727,0.06446 -0.07827,0 -0.119707,-0.03837 -0.0399,-0.0399 -0.08748,-0.128915 -0.06139,-0.127381 -0.147331,-0.197977 -0.08594,-0.07213 -0.276247,-0.07213 -0.176491,0 -0.285454,0.07827 -0.10743,0.07674 -0.10743,0.185699 0,0.06753 0.03683,0.116637 0.03683,0.04911 0.101291,0.08441 0.06446,0.0353 0.130449,0.05525 0.06599,0.01995 0.217928,0.05832 0.190303,0.04451 0.343773,0.09822 0.155005,0.05371 0.262434,0.130449 0.108964,0.07674 0.168818,0.194908 0.06139,0.116637 0.06139,0.286989 z"
         style="font-size:3.14307px;font-family:'Arial Rounded MT Bold';fill:#1b1918;stroke-width:0.0831604"
         id="path2448" />
      <path
         d="m 24.807274,34.538375 h -1.026716 v 0.552493 h 0.945377 q 0.104359,0 0.155005,0.04758 0.05218,0.04604 0.05218,0.122776 0,0.07673 -0.05065,0.125846 -0.05064,0.04758 -0.156539,0.04758 h -0.945377 v 0.639971 h 1.062014 q 0.107429,0 0.161144,0.05064 0.05525,0.04911 0.05525,0.131985 0,0.0798 -0.05525,0.130449 -0.05372,0.04911 -0.161144,0.04911 h -1.238505 q -0.148866,0 -0.214858,-0.06599 -0.06446,-0.06599 -0.06446,-0.213324 v -1.691242 q 0,-0.09822 0.02916,-0.159609 0.02916,-0.06292 0.09055,-0.09055 0.06292,-0.02916 0.159609,-0.02916 h 1.203207 q 0.108964,0 0.161144,0.04911 0.05371,0.04758 0.05371,0.125846 0,0.0798 -0.05371,0.128915 -0.05218,0.04758 -0.161144,0.04758 z"
         style="font-size:3.14307px;font-family:'Arial Rounded MT Bold';fill:#1b1918;stroke-width:0.0831604"
         id="path2450" />
    </g>
    <g
       id="path2099"
       transform="matrix(0.23742044,0,0,0.23742044,1.5257005,1.0211546)">
      <path
         style="color:#000000;fill:#000000;stroke-width:0.673436;-inkscape-stroke:none"
         d="m 60.964844,18.449219 c -28.891598,0 -52.3125002,23.420895 -52.3125002,52.3125 -1e-7,28.891117 23.4209022,52.312501 52.3125002,52.312501 28.891245,0 52.312496,-23.421384 52.312496,-52.312501 0,-28.891605 -23.421251,-52.3125 -52.312496,-52.3125 z m -0.002,3.195312 c 27.125737,0 49.115226,21.989259 49.115226,49.115235 0,27.125737 -21.989489,49.117184 -49.115226,49.117184 -27.125975,0 -49.115235,-21.991447 -49.115235,-49.117184 0,-27.125976 21.98926,-49.115235 49.115235,-49.115235 z"
         id="path2473" />
      <path
         style="color:#000000;fill:#000000;-inkscape-stroke:none"
         d="m 60.964844,18.113281 c -29.073542,0 -52.6484377,23.574889 -52.6484377,52.648438 -2e-7,29.073064 23.5748917,52.648441 52.6484377,52.648441 29.073195,0 52.648436,-23.575375 52.648436,-52.648441 0,-29.073552 -23.575245,-52.648438 -52.648436,-52.648438 z m 0,0.671875 c 28.709241,0 51.976566,23.266962 51.976566,51.976563 0,28.709109 -23.267329,51.976561 -51.976566,51.976561 -28.709593,0 -51.9765628,-23.267449 -51.9765627,-51.976561 0,-28.709604 23.2669657,-51.976563 51.9765627,-51.976563 z m -0.002,2.523438 c -27.307918,0 -49.451172,22.143253 -49.451172,49.451172 0,27.307681 22.143236,49.453124 49.451172,49.453124 27.307699,0 49.451166,-22.145441 49.451166,-49.453124 0,-27.307921 -22.143485,-49.451172 -49.451166,-49.451172 z m 0,0.671875 c 26.943738,0 48.779296,21.83532 48.779296,48.779297 0,26.943736 -21.835576,48.781254 -48.779296,48.781254 -26.94396,0 -48.779297,-21.837516 -48.779297,-48.781254 0,-26.943979 21.835319,-48.779297 48.779297,-48.779297 z"
         id="path2475" />
    </g>
    <g
       id="path2095"
       transform="matrix(0.8973371,0,0,0.8973371,1.5257005,1.0211546)">
      <path
         style="color:#000000;fill:#000000;stroke-width:0.17818;-inkscape-stroke:none"
         d="m 18.091526,25.655944 c -0.798372,-1.334675 -1.378897,-2.849416 -1.673938,-4.429533 0.673089,-0.08825 1.182802,-0.350421 1.659983,-0.904922 1.170952,1.049598 2.166456,2.331657 2.901465,3.739659 -1.13861,1.035297 -2.338509,1.429093 -2.88751,1.594796 z"
         id="path2481" />
      <path
         style="color:#000000;fill:#000000;-inkscape-stroke:none"
         d="m 18.070312,20.195312 -0.06055,0.06836 c -0.465777,0.541249 -0.947229,0.788953 -1.603516,0.875 l -0.09375,0.01172 0.01758,0.0918 c 0.297025,1.590745 0.881699,3.115155 1.685547,4.458985 l 0.03516,0.06055 0.06641,-0.01953 c 0.552004,-0.166609 1.768536,-0.566544 2.921875,-1.615234 l 0.05078,-0.04687 -0.03125,-0.06055 c -0.740013,-1.417587 -1.742762,-2.706759 -2.921875,-3.763672 z m -0.01953,0.234375 c 1.126996,1.018647 2.084627,2.255364 2.802735,3.611329 -1.067782,0.944942 -2.15576,1.329967 -2.710938,1.5 -0.764888,-1.295017 -1.325686,-2.753775 -1.617187,-4.279297 0.598764,-0.0993 1.085783,-0.354986 1.52539,-0.832032 z"
         id="path2483" />
    </g>
    <g
       id="path2093"
       transform="matrix(0.8973371,0,0,0.8973371,1.5257005,1.0211546)">
      <path
         style="color:#000000;fill:#000000;stroke-width:0.17818;-inkscape-stroke:none"
         d="m 21.263861,24.642649 c 0.743651,1.633297 1.171894,3.470674 1.171894,5.371574 -1.581593,-0.944965 -2.960774,-2.274893 -3.995254,-3.804785 1.304564,-0.381349 2.383833,-1.173025 2.82336,-1.566789 z"
         id="path2489" />
      <path
         style="color:#000000;fill:#000000;-inkscape-stroke:none"
         d="m 21.294922,24.496094 -0.08984,0.08008 c -0.429743,0.384999 -1.50367,1.17113 -2.789062,1.546875 l -0.117188,0.03516 0.06836,0.101563 c 1.041641,1.540481 2.429828,2.877933 4.023438,3.830078 l 0.134766,0.08203 v -0.158203 c 0,-1.914279 -0.430941,-3.763715 -1.179688,-5.408203 z m -0.08203,0.273437 c 0.688947,1.54262 1.08274,3.26399 1.111328,5.046875 -1.471333,-0.91338 -2.764609,-2.151085 -3.748047,-3.582031 1.20349,-0.385127 2.177347,-1.066462 2.636719,-1.464844 z"
         id="path2491" />
    </g>
    <g
       id="path2091"
       transform="matrix(0.8973371,0,0,0.8973371,1.5257005,1.0211546)">
      <path
         style="color:#000000;fill:#000000;stroke-width:0.17818;-inkscape-stroke:none"
         d="m 23.066099,20.670936 c -1.529483,0 -3.385215,-0.265087 -4.71681,-0.753268 0.426075,-0.835493 0.34797,-1.617363 0.106927,-2.165641 1.245601,-0.397504 2.647945,-0.63094 4.025114,-0.632449 0.218192,-2.2e-4 0.435064,0.0056 0.650459,0.01685 0.225358,1.097875 0.326408,2.1217 -0.06569,3.534511 z"
         id="path2497" />
      <path
         style="color:#000000;fill:#000000;-inkscape-stroke:none"
         d="m 22.480469,17.03125 c -1.387169,0.0015 -2.796356,0.236398 -4.050782,0.636719 l -0.0957,0.0293 0.04102,0.08984 c 0.231338,0.526203 0.308385,1.278317 -0.105469,2.089844 l -0.04492,0.08984 0.09375,0.03516 c 1.346923,0.493801 3.208272,0.757813 4.748047,0.757813 h 0.06836 l 0.01758,-0.06445 c 0.396118,-1.427297 0.292903,-2.472749 0.06641,-3.576171 l -0.01367,-0.06836 -0.06836,-0.0039 c -0.216907,-0.01133 -0.436415,-0.01585 -0.65625,-0.01563 z m 0,0.177734 c 0.191686,-1.93e-4 0.382654,0.0049 0.572265,0.01367 0.209772,1.043642 0.29243,2.022656 -0.06055,3.347656 -1.480407,-0.0081 -3.244532,-0.264372 -4.535156,-0.724609 0.35262,-0.769964 0.310107,-1.485045 0.101563,-2.021484 1.219036,-0.38107 2.580744,-0.613765 3.921875,-0.615235 z"
         id="path2499" />
    </g>
    <g
       id="path2089"
       transform="matrix(0.8973371,0,0,0.8973371,1.5257005,1.0211546)">
      <path
         style="color:#000000;fill:#000000;stroke-width:0.17818;-inkscape-stroke:none"
         d="m 23.81349,17.210005 c 1.89961,0.211276 3.695248,0.844291 5.263357,1.770806 -1.588226,0.896184 -3.415796,1.474824 -5.328796,1.63223 0.262698,-1.380972 0.302395,-1.946286 0.06544,-3.403036 z"
         id="path2505" />
      <path
         style="color:#000000;fill:#000000;-inkscape-stroke:none"
         d="m 23.707031,17.109375 0.01758,0.115234 c 0.236117,1.451588 0.197719,1.99289 -0.06445,3.371094 l -0.02148,0.115234 0.117187,-0.0098 c 1.926161,-0.158489 3.76583,-0.740086 5.365235,-1.642578 l 0.134765,-0.07617 -0.132812,-0.07813 c -1.578451,-0.932626 -3.38592,-1.570448 -5.298828,-1.783203 z m 0.19336,0.210937 c 1.78395,0.21291 3.468182,0.803349 4.958984,1.65625 -1.510335,0.822913 -3.223394,1.365171 -5.021484,1.527344 0.228952,-1.231352 0.264269,-1.885037 0.0625,-3.183594 z"
         id="path2507" />
    </g>
    <g
       id="path2087"
       transform="matrix(0.8973371,0,0,0.8973371,1.5257005,1.0211546)">
      <path
         style="color:#000000;fill:#000000;stroke-width:0.17818;-inkscape-stroke:none"
         d="m 13.556574,26.121338 c -1.101081,1.500157 -2.533819,2.831878 -4.0679847,3.741576 0.036051,-1.898792 0.5240127,-3.752199 1.3151557,-5.388043 1.138924,0.952257 1.786303,1.303621 2.752829,1.646467 z"
         id="path2513" />
      <path
         style="color:#000000;fill:#000000;-inkscape-stroke:none"
         d="m 10.773438,24.333984 -0.05078,0.101563 c -0.7963741,1.646661 -1.2859457,3.512836 -1.3222654,5.425781 l -0.00391,0.160156 0.1367187,-0.08203 c 1.5460437,-0.916741 2.9876917,-2.256026 4.0957027,-3.765625 l 0.07031,-0.0957 -0.113281,-0.04102 c -0.960264,-0.340624 -1.590159,-0.682342 -2.72461,-1.630859 z m 0.07813,0.271485 c 1.023462,0.842045 1.690955,1.214549 2.568359,1.535156 -1.045388,1.404034 -2.382145,2.642637 -3.8144532,3.525391 0.0642,-1.780218 0.5126022,-3.515601 1.2460942,-5.060547 z"
         id="path2515" />
    </g>
    <g
       id="path2085"
       transform="matrix(0.8973371,0,0,0.8973371,1.5257005,1.0211546)">
      <path
         style="color:#000000;fill:#000000;stroke-width:0.17818;-inkscape-stroke:none"
         d="m 14.087785,20.213084 c 0.491482,0.582883 0.921612,0.894362 1.72715,1.01207 -0.356362,1.532845 -1.02131,3.030016 -1.884367,4.349132 -1.143355,-0.345046 -2.224007,-1.080809 -2.808964,-1.708511 0.771247,-1.39169 1.7858,-2.649107 2.96134,-3.665263 z"
         id="path2521" />
      <path
         style="color:#000000;fill:#000000;-inkscape-stroke:none"
         d="m 14.121094,20.050781 -0.0957,0.08203 c -1.183862,1.023349 -2.206148,2.288692 -2.982422,3.689454 l -0.03125,0.05664 0.04492,0.04687 c 0.598593,0.642335 1.685631,1.383695 2.847656,1.734375 l 0.06445,0.01953 0.03711,-0.05664 c 0.868487,-1.327415 1.537485,-2.832764 1.896485,-4.376953 l 0.02148,-0.0957 -0.0957,-0.01367 c -0.784233,-0.114593 -1.18195,-0.406434 -1.66406,-0.976561 z m -0.02149,0.267578 c 0.446471,0.511315 0.899573,0.808412 1.607422,0.9375 -0.350168,1.475479 -0.993156,2.91341 -1.818359,4.191407 -1.068211,-0.34124 -2.070731,-1.014803 -2.636719,-1.603516 0.750212,-1.334111 1.721796,-2.541978 2.847656,-3.525391 z"
         id="path2523" />
    </g>
    <g
       id="path2083"
       transform="matrix(0.8973371,0,0,0.8973371,1.5257005,1.0211546)">
      <path
         style="color:#000000;fill:#000000;stroke-width:0.17818;-inkscape-stroke:none"
         d="m 14.072605,11.823689 c 0.844166,1.333983 1.462786,2.83546 1.794286,4.39433 -0.647945,0.03916 -1.436605,0.477119 -1.829174,1.095738 -1.11114,-1.008674 -2.180413,-2.426389 -2.901937,-3.767475 0.857839,-0.82138 1.864911,-1.412969 2.936825,-1.722593 z"
         id="path2529" />
      <path
         style="color:#000000;fill:#000000;-inkscape-stroke:none"
         d="m 14.111328,11.71875 -0.0625,0.01953 c -1.086687,0.313891 -2.107048,0.913452 -2.974609,1.744141 l -0.04883,0.04687 0.03125,0.05859 c 0.726511,1.350355 1.801036,2.773537 2.921875,3.791015 l 0.07813,0.07227 0.05664,-0.08984 c 0.373838,-0.589102 1.147402,-1.017678 1.759766,-1.054687 l 0.101562,-0.0059 -0.02148,-0.101562 c -0.333769,-1.569541 -0.954886,-3.08094 -1.804687,-4.423828 z m -0.08203,0.230469 c 0.802279,1.285738 1.393774,2.723027 1.720703,4.216797 -0.622874,0.07517 -1.298077,0.457219 -1.701172,1.019531 -1.062213,-0.978622 -2.079547,-2.326743 -2.783203,-3.615234 0.814728,-0.763469 1.759178,-1.317723 2.763672,-1.621094 z"
         id="path2531" />
    </g>
    <g
       id="path2081"
       transform="matrix(0.8973371,0,0,0.8973371,1.5257005,1.0211546)">
      <path
         style="color:#000000;fill:#000000;stroke-width:0.17818;-inkscape-stroke:none"
         d="m 9.6519359,7.5254745 c 1.5356421,0.8955242 2.9949711,2.2806763 4.0566381,3.7475165 -1.292714,0.457883 -2.01537,0.903288 -2.859536,1.658317 C 10.108247,11.291096 9.6910042,9.4645617 9.6910042,7.5620912 Z"
         id="path2537" />
      <path
         style="color:#000000;fill:#000000;-inkscape-stroke:none"
         d="M 9.6972656,7.4492187 9.6054688,7.5722656 9.6015625,7.5625 c 0,0.00403 0.00195,0.00769 0.00195,0.011719 l -0.011719,0.015625 0.013672,0.013672 c 0.00609,1.9003718 0.4217255,3.725924 1.1621095,5.365234 l 0.05078,0.109375 0.08984,-0.08008 c 0.838311,-0.749792 1.544655,-1.185325 2.830078,-1.640625 l 0.111328,-0.04102 -0.06836,-0.0957 C 12.716224,9.7492222 11.25582,8.3644721 9.7128906,7.4609375 c -0.00544,-0.00319 -0.010181,-0.00854 -0.015625,-0.011719 z m 0.1015625,0.296875 C 11.220888,8.6185892 12.567532,9.8876392 13.570313,11.251953 12.406921,11.6776 11.677224,12.119081 10.898438,12.800781 10.211728,11.249218 9.8248355,9.5334207 9.7988281,7.7460937 Z"
         id="path2539" />
    </g>
    <g
       id="path2079"
       transform="matrix(0.8973371,0,0,0.8973371,1.5257005,1.0211546)">
      <path
         style="color:#000000;fill:#000000;stroke-width:0.17818;-inkscape-stroke:none"
         d="m 8.4810783,17.003756 c -0.2664696,1.361642 -0.200748,2.516909 -0.00874,3.382449 -1.9134115,-0.218978 -3.7097404,-0.892161 -5.2888516,-1.82644 1.5856174,-0.861201 3.4002075,-1.422491 5.2975862,-1.556009 z"
         id="path2545" />
      <path
         style="color:#000000;fill:#000000;-inkscape-stroke:none"
         d="m 8.5917969,16.90625 -0.1171875,0.0078 C 6.56376,17.048528 4.737025,17.615365 3.140625,18.482422 l -0.1386719,0.07422 0.1367188,0.08008 c 1.5884515,0.939805 3.396575,1.617284 5.3242187,1.83789 l 0.1230469,0.01367 -0.027344,-0.121094 C 8.369285,19.513815 8.3042444,18.371095 8.5683594,17.021484 Z m -0.1972656,0.203125 c -0.2266788,1.257074 -0.180358,2.331315 -0.00977,3.164062 -1.7949052,-0.221001 -3.479512,-0.846836 -4.9804687,-1.708984 1.507328,-0.790362 3.2078113,-1.315748 4.9902344,-1.455078 z"
         id="path2547" />
    </g>
    <g
       id="path2077"
       transform="matrix(0.8973371,0,0,0.8973371,1.5257005,1.0211546)">
      <path
         style="color:#000000;fill:#000000;stroke-width:0.17818;-inkscape-stroke:none"
         d="m 13.797522,17.763719 c -0.240603,0.633141 -0.273888,1.320876 0.05689,2.056922 -1.273039,0.414005 -2.663849,0.647818 -4.0769428,0.647818 -0.2015653,0 -0.435567,0.0015 -0.634775,-0.0089 -0.3016406,-1.113717 -0.2637037,-2.467878 0.00252,-3.468632 0.063521,-9.43e-4 0.1680286,9.43e-4 0.2317386,9.43e-4 1.5439712,0 3.0512632,0.287151 4.4205112,0.77197 z"
         id="path2553" />
      <path
         style="color:#000000;fill:#000000;-inkscape-stroke:none"
         d="m 9.0761719,16.902344 -0.017578,0.06641 c -0.270816,1.018016 -0.30885,2.380548 -0.00195,3.513672 l 0.017578,0.0625 0.064453,0.0039 c 0.2032806,0.01061 0.4375487,0.0078 0.6386719,0.0078 1.4229192,0 2.8236642,-0.233535 4.1054692,-0.650391 l 0.09375,-0.03125 -0.04102,-0.0918 c -0.321357,-0.715081 -0.28865,-1.372616 -0.05469,-1.988281 l -0.164062,-0.07031 0.111328,-0.04492 c -1.378205,-0.48799 -2.896156,-0.777343 -4.4511719,-0.777343 -0.061952,0 -0.1656879,-9.91e-4 -0.2324218,0 z m 0.1542969,0.177734 c 0.051819,3.14e-4 0.1048732,0 0.1464843,0 1.5159189,0 2.9935989,0.287783 4.3417969,0.759766 -0.202077,0.589626 -0.219603,1.230971 0.05078,1.90625 -1.249779,0.400434 -2.608595,0.632812 -3.9921872,0.632812 -0.1757362,0 -0.3715181,5.71e-4 -0.5488282,-0.0059 -0.2735209,-1.061688 -0.2414061,-2.333261 0.00195,-3.292969 z"
         id="path2555" />
    </g>
    <g
       id="path2075"
       transform="matrix(0.8973371,0,0,0.8973371,1.5257005,1.0211546)">
      <path
         style="color:#000000;fill:#000000;stroke-width:0.17818;-inkscape-stroke:none"
         d="m 18.249055,11.841856 c 0.865602,0.325088 1.790515,0.617237 3.007764,1.826597 -0.670952,1.284008 -1.594041,2.454017 -2.667715,3.43255 -0.131789,0.120128 -0.246982,0.224416 -0.315815,0.28715 -0.476019,-0.727621 -1.07776,-1.047868 -1.812893,-1.163659 0.323893,-1.553024 0.958574,-3.075905 1.788659,-4.382638 z"
         id="path2561" />
      <path
         style="color:#000000;fill:#000000;-inkscape-stroke:none"
         d="m 18.212891,11.732422 -0.03906,0.0625 c -0.835861,1.315826 -1.474516,2.847711 -1.800781,4.412109 l -0.01953,0.0918 0.09375,0.01367 c 0.717573,0.113025 1.288209,0.416142 1.751953,1.125 l 0.05664,0.08789 0.07813,-0.07227 c 0.06859,-0.06251 0.182535,-0.166863 0.314453,-0.287109 1.081015,-0.985223 2.011304,-2.162987 2.6875,-3.457032 l 0.0293,-0.05664 -0.04492,-0.04687 C 20.092147,12.385263 19.143743,12.081733 18.28125,11.757813 Z m 0.08203,0.226562 c 0.829396,0.309058 1.699791,0.617667 2.83789,1.726563 -0.66273,1.248395 -1.555424,2.394392 -2.603515,3.349609 -0.106113,0.09672 -0.186692,0.167606 -0.25586,0.230469 -0.45431,-0.644319 -1.025472,-0.96636 -1.697265,-1.09375 0.32077,-1.490781 0.927242,-2.950565 1.71875,-4.212891 z"
         id="path2563" />
    </g>
    <g
       id="path2073"
       transform="matrix(0.8973371,0,0,0.8973371,1.5257005,1.0211546)">
      <path
         style="color:#000000;fill:#000000;stroke-width:0.17818;-inkscape-stroke:none"
         d="m 22.754368,7.5370409 c -9.44e-4,1.9674692 -0.442985,3.8706941 -1.199523,5.5239191 -0.95408,-0.899642 -2.068236,-1.488654 -2.871637,-1.750157 1.080651,-1.5299225 2.442954,-2.8256856 4.059876,-3.7694875 z"
         id="path2569" />
      <path
         style="color:#000000;fill:#000000;-inkscape-stroke:none"
         d="m 22.84375,7.4082031 -0.121094,0.044922 -0.01758,0.00781 -0.0078,0.00391 C 21.068511,8.4155599 19.698668,9.720389 18.611338,11.259767 l -0.07031,0.09766 0.115234,0.03906 c 0.789012,0.25682 1.894878,0.83931 2.837891,1.728516 l 0.08984,0.08594 0.05273,-0.113282 C 22.398558,11.432848 22.8428,9.5178932 22.84375,7.5371094 Z M 22.644531,7.7246094 C 22.616487,9.575698 22.208443,11.362773 21.505859,12.929688 20.601762,12.108983 19.593633,11.55955 18.816406,11.291016 19.846804,9.8523043 21.133272,8.6369682 22.644531,7.7246094 Z"
         id="path2571" />
    </g>
    <g
       id="path2071"
       transform="matrix(0.23742044,0,0,0.23742044,1.5257005,1.0211546)">
      <path
         style="color:#000000;fill:#000000;stroke-width:0.673436;-inkscape-stroke:none"
         d="m 60.964844,41.146484 c -16.354156,0 -29.611328,13.25729 -29.611328,29.611328 0,16.354269 13.257172,29.611328 29.611328,29.611328 16.354155,0 29.611328,-13.257059 29.611328,-29.611328 0,-16.354038 -13.257173,-29.611328 -29.611328,-29.611328 z m -0.002,2.408204 c 15.025568,0 27.112346,12.132462 27.207031,27.205078 0.09456,15.072608 -12.162335,27.216771 -27.207031,27.207031 -15.044693,-0.0094 -27.207032,-12.181463 -27.207032,-27.207031 0,-15.025573 12.181463,-27.205079 27.207032,-27.205078 z"
         id="path2577" />
      <path
         style="color:#000000;fill:#000000;-inkscape-stroke:none"
         d="m 60.964844,40.810547 c -16.536111,0 -29.947266,13.411274 -29.947266,29.947265 0,16.536221 13.411159,29.947268 29.947266,29.947268 16.536106,0 29.947265,-13.411047 29.947265,-29.947268 0,-16.535991 -13.411156,-29.947265 -29.947265,-29.947265 z m 0,0.671875 c 16.172168,0 29.27539,13.103339 29.27539,29.27539 0,16.172285 -13.103219,29.275388 -29.27539,29.275388 -16.172172,0 -29.275391,-13.103103 -29.275391,-29.275388 0,-16.172051 13.103222,-29.27539 29.275391,-29.27539 z m -0.002,1.736328 c -15.207513,-10e-7 -27.542969,12.33347 -27.542969,27.541016 0,15.207255 12.316788,27.533455 27.542969,27.542968 C 76.18889,98.312592 88.601572,86.014073 88.505859,70.757812 88.410051,55.506347 76.1697,43.21875 60.962891,43.21875 Z m 0,0.671875 c 14.844296,0 26.777532,11.977357 26.871093,26.871094 0.09341,14.888925 -12.007731,26.878763 -26.871093,26.86914 C 46.099669,97.621559 34.09175,85.603616 34.09175,70.759766 c 0,-14.84357 12.027499,-26.869142 26.871094,-26.869141 z"
         id="path2579" />
    </g>
    <g
       id="path2067"
       transform="matrix(0.23742044,0,0,0.23742044,1.5257005,1.0211546)">
      <path
         style="color:#000000;fill:#000000;stroke-width:0.673436;-inkscape-stroke:none"
         d="m 60.957031,61.238281 c -5.261949,0 -9.527343,4.265274 -9.527343,9.527344 0,5.261594 4.265394,9.527344 9.527343,9.527344 5.261594,0 9.527344,-4.26575 9.527344,-9.527344 0,-5.26207 -4.26575,-9.527344 -9.527344,-9.527344 z m 0.0078,2.435547 c 3.91305,0 7.085937,3.173004 7.085937,7.085938 0,3.913054 -3.172887,7.085937 -7.085937,7.085937 -3.912934,0 -7.083985,-3.172883 -7.083985,-7.085937 0,-3.912934 3.171051,-7.085938 7.083985,-7.085938 z"
         id="path2585" />
      <path
         style="color:#000000;fill:#000000;-inkscape-stroke:none"
         d="m 60.957031,60.902344 c -5.443903,0 -9.863281,4.419256 -9.863281,9.863281 0,5.443566 4.419358,9.863281 9.863281,9.863281 5.443581,0 9.863281,-4.4197 9.863281,-9.863281 0,-5.44404 -4.41972,-9.863281 -9.863281,-9.863281 z m 0,0.671875 c 5.079617,0 9.191406,4.111317 9.191406,9.191406 0,5.079597 -4.111809,9.191406 -9.191406,9.191406 -5.079964,0 -9.191406,-4.111794 -9.191406,-9.191406 0,-5.080104 4.111422,-9.191406 9.191406,-9.191406 z m 0.0078,1.763672 c -4.09496,0 -7.419922,3.327027 -7.419922,7.421875 0,4.094962 3.324969,7.421875 7.419922,7.421875 4.095063,0 7.421875,-3.326808 7.421875,-7.421875 0,-4.094954 -3.326805,-7.421875 -7.421875,-7.421875 z m 0,0.671875 c 3.731021,0 6.75,3.019093 6.75,6.75 0,3.731032 -3.018972,6.75 -6.75,6.75 -3.730907,0 -6.748047,-3.018863 -6.748047,-6.75 0,-3.731013 3.017147,-6.75 6.748047,-6.75 z"
         id="path2587" />
    </g>
  </g>
</svg>
