<?xml version="1.0" encoding="UTF-8" standalone="no"?>
<!-- Created with Inkscape (http://www.inkscape.org/) -->

<svg
   width="32mm"
   height="40mm"
   viewBox="0 0 32 40"
   version="1.1"
   id="svg5"
   inkscape:version="1.1 (c68e22c387, 2021-05-23)"
   sodipodi:docname="kven-laft.svg"
   inkscape:export-filename="C:\Projects\Production work\Haakon\Produksjon runde 1\Img\kven-laft-displacement-map.png"
   inkscape:export-xdpi="1200.1458"
   inkscape:export-ydpi="1200.1458"
   xmlns:inkscape="http://www.inkscape.org/namespaces/inkscape"
   xmlns:sodipodi="http://sodipodi.sourceforge.net/DTD/sodipodi-0.dtd"
   xmlns="http://www.w3.org/2000/svg"
   xmlns:svg="http://www.w3.org/2000/svg">
  <sodipodi:namedview
     id="namedview7"
     pagecolor="#ffffff"
     bordercolor="#999999"
     borderopacity="1"
     inkscape:pageshadow="0"
     inkscape:pageopacity="0"
     inkscape:pagecheckerboard="0"
     inkscape:document-units="mm"
     showgrid="false"
     inkscape:zoom="4.2431962"
     inkscape:cx="95.093411"
     inkscape:cy="83.899019"
     inkscape:window-width="1920"
     inkscape:window-height="1028"
     inkscape:window-x="-6"
     inkscape:window-y="-6"
     inkscape:window-maximized="1"
     inkscape:current-layer="layer2" />
  <defs
     id="defs2" />
  <g
     inkscape:groupmode="layer"
     id="layer3"
     inkscape:label="White background"
     sodipodi:insensitive="true">
    <rect
       style="display:inline;fill:#ffffff;stroke:none;stroke-width:0.3;stroke-linecap:round;stroke-linejoin:round;paint-order:stroke markers fill"
       id="rect1409"
       width="32"
       height="40"
       x="0"
       y="0" />
  </g>
  <g
     inkscape:groupmode="layer"
     id="layer2"
     inkscape:label="Artwork"
     style="display:inline">
    <g
       class="com.sun.star.drawing.ClosedBezierShape"
       id="g12016"
       transform="matrix(0.00868984,0,0,0.00868984,-250.63327,-60.673374)">
      <g
         id="id109">
        <rect
           class="BoundingBox"
           stroke="none"
           fill="none"
           x="28903"
           y="7043"
           width="3616"
           height="4488"
           id="rect12011" />
        <path
           fill="none"
           stroke="#1b1918"
           stroke-width="10"
           stroke-linejoin="miter"
           d="m 29238,7048 h 2945 c 182,0 330,148 330,329 v 3818 c 0,181 -148,330 -330,330 h -2945 c -182,0 -330,-149 -330,-330 V 7377 c 0,-181 148,-329 330,-329 z"
           id="path12013" />
      </g>
    </g>
    <rect
       class="BoundingBox"
       stroke="none"
       fill="none"
       x="2.5278387"
       y="24.113396"
       width="13.981953"
       height="11.157755"
       id="rect12597"
       style="stroke-width:0.00868984" />
    <path
       fill="none"
       stroke="#1b1918"
       stroke-width="0.0868984"
       stroke-linejoin="miter"
       d="m 13.033855,27.702299 -0.01738,-2.659091"
       id="path12599"
       style="stroke-width:0.18;stroke-miterlimit:4;stroke-dasharray:none;stroke-linejoin:round;stroke-linecap:round" />
    <path
       fill="none"
       stroke="#1b1918"
       stroke-width="0.0868984"
       stroke-linejoin="miter"
       d="m 2.6408066,26.242406 7.7860964,-1.824867 0.01738,1.529412 1.816177,-0.347593 V 24.39147 l 0.808155,-0.225936 3.362968,0.208556 0.01738,5.45722 -1.685829,-0.199867 -0.02607,-1.233957 -1.685829,-0.02607 -2.572193,0.469252 0.01738,4.848931 -7.9598934,1.529411"
       id="path12601"
       style="stroke-width:0.18;stroke-miterlimit:4;stroke-dasharray:none;stroke-linejoin:round;stroke-linecap:round" />
    <rect
       class="BoundingBox"
       stroke="none"
       fill="none"
       x="13.033855"
       y="11.695614"
       width="13.981953"
       height="2.6851606"
       id="rect12606"
       style="stroke-width:0.00868984" />
    <path
       fill="none"
       stroke="#1b1918"
       stroke-width="0.0868984"
       stroke-linejoin="miter"
       d="m 13.042545,12.842672 1.312166,0.156418 0.01738,0.912433 2.415775,0.408422 -0.0087,-2.572192 10.219252,1.181818"
       id="path12608"
       style="stroke-width:0.18;stroke-miterlimit:4;stroke-dasharray:none;stroke-linejoin:round;stroke-linecap:round" />
    <rect
       class="BoundingBox"
       stroke="none"
       fill="none"
       x="10.783187"
       y="12.790533"
       width="16.163103"
       height="6.8736634"
       id="rect12613"
       style="stroke-width:0.00868984" />
    <path
       fill="none"
       stroke="#1b1918"
       stroke-width="0.0868984"
       stroke-linejoin="miter"
       d="M 26.928909,19.612058 16.770486,18.769143 v -3.145722 l -3.727941,-0.04345 -1.173128,0.391043 v 0.738636 l -1.042781,0.304145 v -3.83222 l 2.224599,-0.347593"
       id="path12615"
       style="stroke-width:0.18;stroke-miterlimit:4;stroke-dasharray:none;stroke-linejoin:round;stroke-linecap:round" />
    <path
       fill="none"
       stroke="#1b1918"
       stroke-width="0.0868984"
       stroke-linejoin="miter"
       d="m 13.025165,14.789197 -0.01738,-1.442514"
       id="path12617"
       style="stroke-width:0.18;stroke-miterlimit:4;stroke-dasharray:none;stroke-linejoin:round;stroke-linecap:round" />
    <rect
       class="BoundingBox"
       stroke="none"
       fill="none"
       x="2.4930794"
       y="15.553903"
       width="10.566846"
       height="2.4418449"
       id="rect12622"
       style="stroke-width:0.00868984" />
    <path
       fill="none"
       stroke="#1b1918"
       stroke-width="0.0868984"
       stroke-linejoin="miter"
       d="m 2.510459,17.943608 7.933824,-2.328877 0.0087,2.137701 1.833556,-0.573529 -0.0087,-0.816845 0.756016,-0.225936"
       id="path12624"
       style="stroke-width:0.18;stroke-miterlimit:4;stroke-dasharray:none;stroke-linejoin:round;stroke-linecap:round" />
    <rect
       class="BoundingBox"
       stroke="none"
       fill="none"
       x="12.973026"
       y="16.083982"
       width="3.5628345"
       height="5.1183157"
       id="rect12629"
       style="stroke-width:0.00868984" />
    <path
       fill="none"
       stroke="#1b1918"
       stroke-width="0.0868984"
       stroke-linejoin="miter"
       d="M 13.025165,18.369411 V 16.622753"
       id="path12631"
       style="stroke-width:0.18;stroke-miterlimit:4;stroke-dasharray:none;stroke-linejoin:round;stroke-linecap:round" />
    <path
       fill="none"
       stroke="#1b1918"
       stroke-width="0.0868984"
       stroke-linejoin="miter"
       d="m 13.016476,16.127432 3.441176,0.02607 0.01738,4.987969 -1.694519,-0.278075 v -1.477273 l -1.764037,-0.199866"
       id="path12633"
       style="stroke-width:0.18;stroke-miterlimit:4;stroke-dasharray:none;stroke-linejoin:round;stroke-linecap:round" />
    <rect
       class="BoundingBox"
       stroke="none"
       fill="none"
       x="2.4930794"
       y="19.142807"
       width="10.558156"
       height="6.8041449"
       id="rect12638"
       style="stroke-width:0.00868984" />
    <path
       fill="none"
       stroke="#1b1918"
       stroke-width="0.0868984"
       stroke-linejoin="miter"
       d="m 2.510459,25.894812 7.942514,-1.868316 0.0087,-4.258021 2.563502,-0.582219"
       id="path12640"
       style="stroke-width:0.18;stroke-miterlimit:4;stroke-dasharray:none;stroke-linejoin:round;stroke-linecap:round" />
    <rect
       class="BoundingBox"
       stroke="none"
       fill="none"
       x="10.791877"
       y="5.7952123"
       width="16.23262"
       height="6.8475938"
       id="rect12645"
       style="stroke-width:0.00868984" />
    <path
       fill="none"
       stroke="#1b1918"
       stroke-width="0.0868984"
       stroke-linejoin="miter"
       d="M 26.92022,7.5071106 16.787866,5.8473512 16.779176,8.141469 14.363401,7.8199449 V 7.1768967 l -1.338236,-0.02607 -2.189839,0.6430482 V 10.79187 l 1.05147,-0.173797 V 9.7838487 l 1.199198,-0.2867647 3.701872,0.2346257 v 1.7379683 l 10.219252,1.120989"
       id="path12647"
       style="stroke-width:0.18;stroke-miterlimit:4;stroke-dasharray:none;stroke-linejoin:round;stroke-linecap:round" />
    <rect
       class="BoundingBox"
       stroke="none"
       fill="none"
       x="2.4843895"
       y="9.0452127"
       width="14.034092"
       height="8.2553482"
       id="rect12652"
       style="stroke-width:0.00868984" />
    <path
       fill="none"
       stroke="#1b1918"
       stroke-width="0.0868984"
       stroke-linejoin="miter"
       d="m 2.5625981,17.248421 7.8729949,-2.372326 0.0087,-2.068182 2.528743,-0.399733 1.807487,0.182487 -0.0087,0.851604 1.694519,0.269385 v -3.571524 l -3.362968,-0.2172458 -0.825535,0.1998658 -0.0087,0.712567 -1.824866,0.356284 -0.0087,-2.0855618 -7.9338238,2.6677808"
       id="path12654"
       style="stroke-width:0.18;stroke-miterlimit:4;stroke-dasharray:none;stroke-linejoin:round;stroke-linecap:round" />
    <rect
       class="BoundingBox"
       stroke="none"
       fill="none"
       x="2.5104589"
       y="3.0666025"
       width="14.025402"
       height="8.0294123"
       id="rect12659"
       style="stroke-width:0.00868984" />
    <path
       fill="none"
       stroke="#1b1918"
       stroke-width="0.0868984"
       stroke-linejoin="miter"
       d="m 2.5278387,11.043876 7.9164443,-2.7546798 -0.0087,-0.9819519 2.598262,-0.7299465 1.764038,0.060829 v 0.8342247 l 1.659759,0.2085561 0.01738,-3.8582889 -3.415107,0.01738 -1.225268,0.3128342 0.02607,0.8516043 -1.416444,0.4605615 -0.0087,-2.3288771 -7.9077543,3.1109627"
       id="path12661"
       style="stroke-width:0.18;stroke-miterlimit:4;stroke-dasharray:none;stroke-linejoin:round;stroke-linecap:round" />
    <rect
       class="BoundingBox"
       stroke="none"
       fill="none"
       x="10.757117"
       y="19.351362"
       width="16.23262"
       height="8.6811504"
       id="rect12666"
       style="stroke-width:0.00868984" />
    <path
       fill="none"
       stroke="#1b1918"
       stroke-width="0.0868984"
       stroke-linejoin="miter"
       d="m 26.972359,20.211657 -10.201873,-0.808155 0.01738,2.215909 -2.433155,-0.408423 v -1.372994 l -1.329546,-0.139038 -2.207219,0.521391 -0.0087,5.326871 1.07754,-0.173796 0.0087,-1.173129 1.147059,-0.304144 3.719252,0.208556 0.02607,3.397727 10.167113,0.477942"
       id="path12668"
       style="stroke-width:0.18;stroke-miterlimit:4;stroke-dasharray:none;stroke-linejoin:round;stroke-linecap:round" />
    <rect
       class="BoundingBox"
       stroke="none"
       fill="none"
       x="12.973026"
       y="4.6220837"
       width="0.095588237"
       height="1.1644386"
       id="rect12673"
       style="stroke-width:0.00868984" />
    <path
       fill="none"
       stroke="#1b1918"
       stroke-width="0.0868984"
       stroke-linejoin="miter"
       d="M 13.016476,4.6220838 V 5.7778325"
       id="path12675"
       style="stroke-width:0.18;stroke-miterlimit:4;stroke-dasharray:none;stroke-linejoin:round;stroke-linecap:round" />
    <rect
       class="BoundingBox"
       stroke="none"
       fill="none"
       x="13.016476"
       y="7.8981533"
       width="0.095588237"
       height="0.94719255"
       id="rect12680"
       style="stroke-width:0.00868984" />
    <path
       fill="none"
       stroke="#1b1918"
       stroke-width="0.0868984"
       stroke-linejoin="miter"
       d="M 13.059925,7.8981534 V 8.8366562"
       id="path12682"
       style="stroke-width:0.18;stroke-miterlimit:4;stroke-dasharray:none;stroke-linejoin:round;stroke-linecap:round" />
    <rect
       class="BoundingBox"
       stroke="none"
       fill="none"
       x="12.990406"
       y="10.704971"
       width="0.13034759"
       height="1.1296792"
       id="rect12687"
       style="stroke-width:0.00868984" />
    <path
       fill="none"
       stroke="#1b1918"
       stroke-width="0.0868984"
       stroke-linejoin="miter"
       d="m 13.033855,10.713662 0.03476,1.103609"
       id="path12689"
       style="stroke-width:0.18;stroke-miterlimit:4;stroke-dasharray:none;stroke-linejoin:round;stroke-linecap:round" />
    <rect
       class="BoundingBox"
       stroke="none"
       fill="none"
       x="12.946957"
       y="20.776497"
       width="0.14772728"
       height="2.3983958"
       id="rect12694"
       style="stroke-width:0.00868984" />
    <path
       fill="none"
       stroke="#1b1918"
       stroke-width="0.0868984"
       stroke-linejoin="miter"
       d="m 13.042545,20.785186 -0.05214,2.372326"
       id="path12696"
       style="stroke-width:0.18;stroke-miterlimit:4;stroke-dasharray:none;stroke-linejoin:round;stroke-linecap:round" />
    <g
       class="com.sun.star.drawing.TextShape"
       id="g13594"
       transform="matrix(0.00868984,0,0,0.00868984,-250.63327,-60.673374)">
      <g
         id="id287">
        <rect
           class="BoundingBox"
           stroke="none"
           fill="none"
           x="30147"
           y="10865"
           width="3981"
           height="396"
           id="rect13583" />
        <text
           class="TextShape"
           id="text13591"><tspan
             class="TextParagraph"
             font-family="'Arial Rounded MT Bold'"
             font-size="353px"
             font-weight="400"
             id="tspan13589"><tspan
               class="TextPosition"
               x="30147"
               y="11183"
               id="tspan13587"><tspan
                 fill="#1b1918"
                 stroke="none"
                 id="tspan13585">KVEN-LAFT</tspan></tspan></tspan></text>
      </g>
    </g>
  </g>
  <g
     inkscape:label="Frame"
     inkscape:groupmode="layer"
     id="layer1"
     style="display:inline"
     sodipodi:insensitive="true">
    <path
       id="rect868"
       style="fill:#000000;stroke:none;stroke-width:1.72726;stroke-linecap:round;stroke-linejoin:round;paint-order:stroke markers fill"
       d="M 0,0 V 151.18164 H 120.94531 V 0 Z m 15.117188,4.1582031 h 90.708982 c 6.07219,0 10.96094,4.8867952 10.96094,10.9589849 V 136.0625 c 0,6.07219 -4.88875,10.96094 -10.96094,10.96094 H 15.117188 c -6.0721897,0 -10.9589849,-4.88875 -10.9589849,-10.96094 V 15.117188 c 0,-6.0721897 4.8867952,-10.9589849 10.9589849,-10.9589849 z"
       transform="scale(0.26458333)" />
  </g>
</svg>
