<?xml version="1.0" encoding="UTF-8" standalone="no"?>
<!-- Created with Inkscape (http://www.inkscape.org/) -->

<svg
   width="32mm"
   height="40mm"
   viewBox="0 0 32 40"
   version="1.1"
   id="svg5"
   inkscape:version="1.1 (c68e22c387, 2021-05-23)"
   sodipodi:docname="rokk.svg"
   inkscape:export-filename="C:\Projects\Production work\Haakon\Produksjon runde 1\Img\kven-laft-displacement-map.png"
   inkscape:export-xdpi="1200.1458"
   inkscape:export-ydpi="1200.1458"
   xmlns:inkscape="http://www.inkscape.org/namespaces/inkscape"
   xmlns:sodipodi="http://sodipodi.sourceforge.net/DTD/sodipodi-0.dtd"
   xmlns="http://www.w3.org/2000/svg"
   xmlns:svg="http://www.w3.org/2000/svg">
  <sodipodi:namedview
     id="namedview7"
     pagecolor="#ffffff"
     bordercolor="#999999"
     borderopacity="1"
     inkscape:pageshadow="0"
     inkscape:pageopacity="0"
     inkscape:pagecheckerboard="0"
     inkscape:document-units="mm"
     showgrid="false"
     inkscape:zoom="3.8353177"
     inkscape:cx="87.476456"
     inkscape:cy="53.711326"
     inkscape:window-width="1920"
     inkscape:window-height="1028"
     inkscape:window-x="-6"
     inkscape:window-y="-6"
     inkscape:window-maximized="1"
     inkscape:current-layer="layer2"
     inkscape:snap-global="false" />
  <defs
     id="defs2" />
  <g
     inkscape:groupmode="layer"
     id="layer3"
     inkscape:label="White background"
     sodipodi:insensitive="true">
    <rect
       style="display:inline;fill:#ffffff;stroke:none;stroke-width:0.3;stroke-linecap:round;stroke-linejoin:round;paint-order:stroke markers fill"
       id="rect1409"
       width="32"
       height="40"
       x="0"
       y="0" />
  </g>
  <g
     inkscape:groupmode="layer"
     id="layer2"
     inkscape:label="Artwork"
     style="display:inline">
    <rect
       class="BoundingBox"
       stroke="none"
       fill="none"
       x="3.7361236"
       y="4.2508893"
       width="25.1416"
       height="29.619478"
       id="rect13344"
       style="stroke-width:0.00884956" />
    <path
       fill="#020202"
       stroke="none"
       d="m 23.169757,31.578331 c -0.06195,-0.194691 -0.04425,-0.292036 0.132744,-0.336284 0.106194,-0.02655 1.238938,-0.168141 1.309735,0.0885 0.115044,0.39823 -0.309735,0.336283 -0.61947,0.353982 -0.238938,0.0177 -0.761062,0.106195 -0.823009,-0.106194 z m 0,0 z m 1.495576,-0.955753 c 0.123894,-0.09735 0.575221,-0.300885 0.752213,-0.371681 0.08849,0.230088 0.504424,1.336283 0.460177,1.460177 -0.0885,0.150443 -0.442478,0.09735 -0.566372,0.06195 -0.19469,-0.460177 0.0354,-0.415929 -0.283186,-0.619469 -0.176991,-0.115044 -0.256637,-0.327434 -0.362832,-0.530974 z m 0,0 z m -17.7522174,1.601771 0.8407082,0.06195 c 0.00885,0.247788 -0.053097,0.557523 -0.088496,0.787611 -0.044248,0.292036 -0.035398,0.539823 -0.3097346,0.592921 -0.4601771,0.09735 -0.3451328,-0.106195 -0.3539824,-0.477876 -0.00885,-0.327434 -0.044248,-0.637169 -0.088496,-0.964602 z m 0,0 z M 22.753828,31.365941 c -0.389381,0.0531 -5.734515,0.699115 -6.221241,0.699115 -0.115044,-0.610619 0.247788,-1.265487 0.513275,-1.530973 0.752212,-0.769912 2.141593,-1.345134 3.0177,-2.539824 0.637168,-0.867257 0.743363,-0.353983 0.893805,-0.168142 0.150443,0.0177 0.274337,-0.02655 0.398231,-0.0708 l 0.02655,-0.194691 c 0.185841,-0.0088 0.300885,0.141593 0.362832,0.345133 0.132744,0.451328 -0.566372,0.477877 -0.20354,1.690266 0.238938,0.796461 1.035399,1.398231 1.21239,1.769912 z m 0,0 z m -4.43363,-2.265487 c -0.106194,-0.300885 -0.0531,-0.787611 -0.02655,-1.088496 0.256637,-0.06195 0.371681,-0.0088 0.60177,0.0088 -0.0089,0.176991 -0.115044,0.477876 -0.159292,0.646017 -0.0708,0.238939 -0.123894,0.424779 -0.41593,0.433629 z m 0,0 z m 3.168143,-4.973453 c 0.415929,0.495576 0.575221,1.115045 0.814159,1.80531 0.628319,1.82301 1.902656,3.247789 2.150444,4.42478 0.0354,0.141593 0.123893,0.486726 0.04425,0.60177 -0.0088,0 -0.0177,0.0089 -0.0177,0.0177 l -0.59292,0.0531 c -1.088496,0.0885 -0.929204,0.380531 -1.699116,-0.699115 -0.991151,-1.398231 -0.06195,-1.973452 -0.141593,-2.389381 -0.07965,-0.353983 -0.415929,-0.353983 -0.495575,-1.495576 -0.04425,-0.61062 -0.115044,-1.752213 -0.06195,-2.318585 z m 0,0 z m 3.309735,6.150444 c -0.265486,-0.274336 -0.539823,-0.964602 -0.743363,-1.371681 -0.247787,-0.469027 -0.495575,-0.920355 -0.761062,-1.362833 -0.159292,-0.274336 -1.690266,-3.026549 -0.619469,-2.920354 0.646018,0.06195 1.725664,3.761063 2.0177,4.40708 0.371681,0.823009 0.876106,1.21239 0.106194,1.247788 z m 0,0 z m -3.522125,-3.389381 c -0.09735,-0.353983 -0.06195,-1.274337 -0.0708,-1.672567 l 0.0177,-1.539823 c 0.0177,-0.06195 0.0177,-0.0531 0.0354,-0.0885 0.0708,0.362832 0.09735,3.035399 0.0177,3.300886 z m 0,0 z M 7.0989564,31.941163 c -0.079646,-0.141593 0,-1.654868 0,-1.973452 -0.00885,-0.619469 -0.283186,-5.123895 0.3362832,-5.309736 0.1504426,-0.0354 0.3893807,0.0177 0.4513276,0.08849 0.3539824,0.353983 -0.053097,3.283187 -0.1150443,3.858409 -0.097345,1 -0.1946903,1.973451 -0.088496,2.982301 0.044248,0.362832 0.1150443,0.460177 -0.3628319,0.433629 -0.1592921,0 -0.141593,0.0088 -0.221239,-0.07965 z m 0,0 z m 11.5221266,-4.159294 -0.04425,-0.0531 c -0.0177,-0.0531 -0.0354,0.0177 -0.04425,-0.256637 l 0.106195,-2.176992 c 0.0354,-0.380531 0.07965,-0.778761 0.168141,-1.123894 0.04425,-0.176991 0.115045,-0.353982 0.185841,-0.486726 0.0708,-0.159292 0.256637,-0.238938 0.477876,-0.141593 0.327434,0.132744 -0.168141,2.00885 -0.212389,2.238939 -0.06195,0.265487 -0.380531,2.00885 -0.637169,2 z m 0,0 z m 0.292036,1.088496 c 0.0089,-0.265486 0.159292,-0.495575 0.159292,-0.849557 0.0089,-1.132744 0.212389,-1.398231 0.495575,-2.557523 0.283186,-1.141594 0.150443,-0.858408 0.20354,-1.805311 0.0177,-0.221239 0.0885,-0.168141 0.168142,-0.353982 0.06195,-0.132743 0.0708,-0.274336 0.106195,-0.40708 0.08849,-0.300885 0.513274,-0.176991 0.80531,-0.176991 0.212389,0.522124 0.132743,1.345133 0.141593,1.929204 0.0177,0.663717 0.06195,1.336284 0.0531,2.000001 -0.0088,0.353982 0.0354,0.646018 -0.353982,0.681416 -0.628319,0.0531 -0.424779,0.0708 -0.699116,0.433628 -0.08849,0.115045 -0.159292,0.176992 -0.256637,0.283186 -0.221239,0.238938 -0.539823,0.646018 -0.823009,0.823009 z m 0,0 z M 22.169757,23.1447 c 0.132743,0.256637 0.504425,0.884956 0.460177,1.168142 -0.08849,0.0885 -0.424779,0.309735 -0.628319,0.20354 -0.09735,-0.0531 -0.858407,-1.663717 -0.902655,-1.80531 0.20354,-0.0089 0.495576,0.0088 0.681416,0.02655 0.256638,0.0354 0.265487,0.176991 0.389381,0.40708 z m 0,0 z m -2.380532,-0.39823 c 0,0.292035 -0.0708,0.681416 -0.424778,0.575221 -0.09735,-0.02655 -0.283186,-0.132743 -0.318585,-0.221239 -0.04425,-0.123894 0.0531,-0.283186 0.0885,-0.345133 0.230089,-0.06195 0.451328,-0.0177 0.654867,-0.0088 z m 0,0 z m -3.539824,9.106197 c -0.407079,0.0088 -7.5398247,0.707965 -8.2477895,0.79646 C 7.709576,30.463286 7.8954168,29.755321 8.1343549,27.693374 8.2140009,26.985409 8.3201956,26.003108 8.2582487,25.268594 8.2405496,25.047355 8.2317,24.888063 8.152054,24.657975 8.3644434,23.95001 8.4440895,23.410187 8.4794877,22.914611 l 10.3451353,-0.19469 c 0.0708,1.309735 -0.362832,0.902655 -0.469026,3.23009 -0.0177,0.309734 -0.0088,1.566372 -0.07965,1.725664 -0.238938,0.513274 -0.274337,1.061947 -0.132744,1.654867 -0.168141,0.20354 -0.424779,0.345133 -0.663717,0.530974 -0.380531,0.292036 -0.858407,0.81416 -1.061947,1.274337 -0.0708,0.159292 -0.06195,0.274336 -0.115044,0.433628 -0.06195,0.20354 -0.0089,0.150443 -0.0531,0.283186 z m 0,0 z m -0.07965,0.159292 c 0.0531,0.06195 0.0354,0.04425 0.09735,0.123894 0.06195,0.0885 0.0708,0.168142 0.141592,0.221239 0.123894,0.07965 0.380532,0.0354 0.548673,0.0531 -1.123894,0.150443 -3.584072,0.371682 -4.716815,0.495576 -1.106195,0.115044 -2.7787621,0.327433 -3.8849571,0.39823 L 8.2582487,32.79072 c 0.9469029,-0.115044 2.4601773,-0.265486 3.4070803,-0.345132 0.743363,-0.0708 3.840709,-0.230089 4.504426,-0.433629 z m 0,0 z M 7.2493989,24.34824 c -0.070797,-0.265487 0.00885,-1.088496 0.017699,-1.433629 l 0.8407082,0.0177 c 0.026549,0.212389 -0.00885,0.584071 -0.026549,0.79646 -0.044248,0.433628 0.017699,1.044248 -0.8318582,0.619469 z m 0,0 z M 19.311349,20.93231 c -0.02655,0.07965 -0.02655,0.115044 -0.02655,0.185841 0.938054,0.247787 2.02655,0.230088 2.876107,-0.02655 -0.0088,-0.07965 -0.0088,-0.0885 -0.0354,-0.159292 l 0.238938,0.0088 0.247788,0.407079 -15.7168185,0.07965 V 20.93231 c 0.1327434,0.0088 0.5752214,0.0177 0.6017701,0.02655 -0.3982302,0.575221 3.4336294,0.522124 2.8230094,-0.02655 z m 0,0 z m 3.513275,1.566372 -16.0088536,0.141593 c 0,-0.283186 0.035398,-0.637168 0.061947,-0.982301 5.1238956,-0.0885 10.8584096,-0.06195 16.0000046,-0.07965 z m 0,0 z M 6.6299297,21.923461 c 0.026549,-0.0708 0.00885,-0.442478 0.044248,-0.619469 -0.3097346,-0.0177 -0.3982302,0.176991 -0.3893807,0.283185 -0.00885,0.106195 0.1769912,0.247788 0.3451327,0.336284 z m 0,0 z m -1.911505,-0.716815 c 0.3185842,-0.09735 0.7168144,-0.0708 0.9734516,0.0531 0.2831859,0.132743 0.442478,0.380531 -0.1238938,0.59292 -0.8761065,0.318582 -1.7876111,-0.362834 -0.8495578,-0.64602 z m 0,0 z m -0.8053099,0.442478 c 0,-0.123893 0.017699,-0.132743 0.1150442,-0.18584 0.044248,0.115044 0.053097,0.123893 -0.00885,0.230088 z m 0,0 z m 4.9734527,-0.946903 c 0.4690267,0.0531 1.5929205,0.150443 1.2212395,0.380532 -0.2035401,0.123893 -0.707965,0.168141 -1.2212395,0.150442 -0.362832,-0.0177 -0.9469029,0.0177 -1.1592924,-0.185841 -0.2920355,-0.274336 1.1504428,-0.345133 1.1592924,-0.345133 z m 0,0 z M 21.948518,20.047354 c 0.06195,0.504425 -0.637168,0.778761 -1.221239,0.761062 -0.637169,-0.0177 -1.256638,-0.309734 -1.176992,-0.778761 0.04425,-0.20354 0.292036,-0.477876 0.876107,-0.584071 0.238938,0.0354 0.345133,0.0531 0.672566,0.0088 0.353983,0.06195 0.81416,0.283186 0.849558,0.592921 z m 0,0 z M 9.1432047,20.516381 c 0.3805311,-0.06195 0.8230091,-0.40708 0.8407082,-1.00885 0,-0.362832 -0.1592921,-0.663717 -0.4247789,-0.858407 l 0.1946904,-2.362833 c 0.070796,0.0089 0.097345,0.0089 0.1681416,0.0089 0.309735,0 0.592921,-0.0885 0.823009,-0.247788 l 0.433629,0.238938 0.495575,-0.707965 c -0.02655,-0.0177 -0.0531,-0.04425 -0.0708,-0.0708 0.06195,-0.0708 0.0354,-0.0531 0.168142,-0.21239 -0.159292,-0.256637 -0.132743,-0.353982 -0.0885,-0.424779 0.04425,-0.0708 0.20354,-0.18584 0.469027,-0.0531 0.07965,0.0354 0.115044,-0.02655 0.06195,-0.06195 -0.283186,-0.20354 -0.938053,-0.04425 -0.513274,0.566372 -0.07965,0.0708 -0.141593,0.150442 -0.150443,0.150442 l -0.221239,-0.230088 c 0.0354,-0.132743 0.0708,-0.256637 0.0708,-0.415929 0,-0.80531 -0.654868,-1.469027 -1.477877,-1.469027 -0.1327434,0 -0.1946903,0.0177 -0.3185842,0.0531 -0.00885,-0.06195 0,-0.115044 -0.00885,-0.176991 -0.00885,-0.256637 0.5309742,-1.274337 -0.079646,-1.265487 l 0.00885,-1.132744 c 0.00885,-0.424779 -1.106195,-0.415929 -1.0973454,0.02655 l 0.017699,1.106195 c -0.5132745,0 -0.079646,1.141593 -0.079646,1.309735 0,0.300885 -0.044248,0.380531 -0.3274337,0.823009 l 0.070797,1.345133 c 0.00885,0.150442 0.2123894,0.185841 0.3097346,0.19469 -0.097345,0.0088 -0.300885,0.159292 -0.2920355,0.336283 l 0.2566373,2.637169 c -0.3982302,0.168142 -0.4601772,0.584071 -0.4601772,0.867257 -0.017699,0.415929 0.2477877,0.946903 0.9026552,1.00885 -0.3982302,0 -0.663717,0.0531 -1.1238942,0.265487 l -1.0176994,0.0088 c -0.017699,0.150443 -0.026549,0.141593 -0.00885,0.318585 -0.2477877,0.221239 -1.026549,-0.0708 -1.2831862,-0.07965 -0.2920355,-0.0088 -1.3893809,0.132744 -1.5752217,0.283186 -0.1061947,0.09735 -0.1061947,0.371682 -0.026549,0.504425 0.070796,0.115045 0.017699,0.07965 0.1946903,0.123894 0.6194692,0.159292 1.0088499,0.238938 1.61062,0.106195 0.5486727,-0.123894 0.8672568,-0.176991 1.0176994,0.123894 l -0.017699,0.787611 c 0.053097,0.0531 0.1946904,0 0.3716816,0.02655 -0.044248,0.486726 -0.026549,1.389381 0.088496,1.61947 -0.1858408,0.628318 -0.079646,0.566372 -0.1592921,1.20354 -0.1504425,1.168142 0,2.796461 0.026549,4.044249 0.053097,2.477877 -0.3539824,1.513275 -0.017699,4.02655 1.1858411,-0.141593 0.6991153,-0.159292 0.9823012,-0.424779 0.3274337,0.0885 0.4690267,0.0708 0.8672569,0.0354 2.1504431,-0.176991 6.4513291,-0.61062 8.5752241,-0.849558 1.123894,-0.123894 6.256639,-0.59292 7.283188,-0.80531 0.336283,-0.06195 0.123893,-0.0885 0.327433,-0.159292 0.176992,0.115044 0.168142,0.327434 0.469027,0.362832 0.274336,0.02655 0.619469,-0.04425 0.699115,-0.238938 0.0354,-0.274336 -0.247787,-1 -0.362832,-1.274337 -0.176991,-0.460177 -0.336283,-0.654867 -0.548672,-1.035398 -0.424779,-0.734514 -0.628319,-1.477877 -0.920355,-2.327434 -0.292035,-0.81416 -0.59292,-1.513275 -1.017699,-2.194691 -0.247788,-0.40708 -0.292036,-0.681416 -0.486726,-1.123894 -0.132743,-0.283186 -0.477876,-0.831859 -0.460177,-1.115045 l 0.734513,-0.0177 0.0531,-1.283186 -0.504425,-0.637169 h -0.566372 c -0.04425,-0.06195 -0.06195,-0.07965 -0.150442,-0.141593 0.0708,-0.0531 0.132743,-0.115044 0.203539,-0.221239 0.256638,-0.0354 0.274337,-0.0531 0.778762,-0.176991 1.699115,-0.513274 2.752213,-1.168142 3.964603,-2.477877 1.389381,-1.690266 1.814159,-2.982301 2,-4.707966 0.123894,-1.265487 -0.07965,-3 -1.079646,-4.7610628 C 26.550289,6.188943 24.72728,5.2066419 23.824625,4.861509 23.072412,4.4898275 21.70073,4.2331903 20.727279,4.2508894 c -0.584071,0.00885 -1.672567,0.1150443 -2.159293,0.2743364 -1.831859,0.5132744 -2.929204,1.3805313 -3.964603,2.4867263 -0.929204,0.9292038 -1.938053,3.0265499 -2,4.6991159 -0.159292,2.115045 0.380531,3.460178 1.088496,4.769913 0.929203,1.486726 2.053097,2.61947 3.911505,3.42478 0.823009,0.292036 1.300885,0.424779 1.769912,0.495575 0.06195,0.09735 0.132743,0.168142 0.185841,0.21239 -0.123894,0.106195 -0.141593,0.141593 -0.141593,0.141593 l -9.230091,0.0088 C 9.7538244,20.560628 9.5768332,20.569478 9.1432047,20.516381 Z m 0,0 z M 25.187457,16.728769 c 0.256637,-0.265487 0.39823,-0.469027 0.415929,-0.477876 -0.380531,-0.221239 -0.672566,0.19469 -0.415929,0.477876 z m 0,0 z m -5.371683,-5.044249 -3.566373,-3.0088506 0.20354,-0.2300886 3.460178,3.1238952 c 0.0531,0.0708 -0.0088,0.159292 -0.09734,0.115044 z m 0,0 z m -4.353983,3.389381 c -0.115045,-0.0177 -0.185841,-0.0177 -0.309735,0.0354 -0.451328,-0.876107 -0.61062,-1.725665 -0.637168,-2.814161 0.115044,0 0.20354,-0.0177 0.300885,-0.08849 l 4.778762,0.274336 c 0.0177,0.141593 0.0354,0.168142 0.0708,0.292036 z m 0,0 z m 0.336283,0.389381 -0.168142,-0.309735 4.079647,-2.283186 c 0.0885,-0.0354 0.141593,0.07965 0.0708,0.123894 z m 0,0 z m -0.20354,0.415929 c 0.106195,-0.07965 0.159292,-0.168141 0.19469,-0.256637 l 4.061948,-2.539824 c 0.09735,0.115045 0.168142,0.194691 0.265487,0.238938 l -1.946903,4.380533 c -0.141593,0.06195 -0.20354,0.150442 -0.238938,0.230088 -0.955753,-0.522124 -1.40708,-0.867257 -2.336284,-2.053098 z m 0,0 z m 4.460178,0.893806 -0.221239,1.778761 c -0.557522,-0.07965 -0.681416,-0.150442 -1.097345,-0.274336 0.02655,-0.06195 0.06195,-0.19469 -0.0089,-0.345133 l 1.725664,-4.460178 0.06195,0.0177 c -0.02655,1.017699 -0.115044,2.115045 -0.460177,3.283187 z m 0,0 z m 0.752213,-2.982302 c -0.0708,1.079646 0.20354,2.318585 0.415929,3.000001 l 0.19469,2.41593 c -0.575221,0.150442 -0.99115,0.0531 -1.424779,-0.115044 l 0.221239,-2.274337 c 0.39823,-1.194691 0.433629,-1.769912 0.424779,-3.035399 0.06195,0.0177 0.09735,0.0177 0.168142,0.0088 z m 0,0 z m 0.141593,-0.495575 0.0177,-0.707965 c -0.132744,-0.115044 -0.132744,-0.230089 -0.0531,-0.336283 -0.150443,-0.176992 0.256637,-0.389381 -0.20354,-0.716815 -0.469027,0.327434 -0.0531,0.539823 -0.176992,0.699116 0.141593,0.19469 -0.07965,0.283185 -0.0885,0.292035 0.02655,0.0354 0.0354,0.654867 0.0354,0.752213 -0.09735,-0.0088 -0.0531,-0.0088 -0.123894,-0.04425 -0.20354,-0.0885 -0.336283,-0.21239 -0.442478,-0.389381 -0.08849,-0.159292 -0.150442,-0.327434 -0.123894,-0.548673 0.0089,-0.123893 0.0531,-0.38938 0.21239,-0.539823 0.132743,-0.159292 0.300885,-0.247787 0.460177,-0.300885 0.256637,-0.07965 0.460177,-0.04425 0.619469,0.02655 0.247788,0.09734 0.362832,0.238938 0.469027,0.39823 0.07965,0.106195 0.159292,0.39823 0.132743,0.575222 -0.0177,0.212389 -0.09735,0.38938 -0.256637,0.566371 -0.168142,0.150443 -0.274336,0.230089 -0.477876,0.274337 z m 0,0 z m 1.176991,4.716815 -1.168142,-4.442479 c -0.02655,-0.07965 0.07965,-0.20354 0.115045,-0.115044 l 1.274336,4.495576 c -0.0885,0.0088 -0.09735,0.0088 -0.221239,0.06195 z m 0,0 z m -0.123894,0.115044 c -0.04425,0.0354 -0.123893,0.221239 -0.0885,0.362832 -0.09735,0.0177 -0.292036,0.0531 -0.327434,0.0531 l -0.20354,-1.716815 c -0.19469,-0.654867 -0.469026,-1.982301 -0.460177,-2.849558 z m 0,0 z m -0.823009,-4.707965 c 0.115045,-0.04425 0.141593,-0.06195 0.256638,-0.150443 l 3.530974,3.203541 c 0,0.132743 0.0177,0.230088 0.141593,0.345133 -0.725664,0.699115 -1.522124,1.168142 -2.327434,1.451327 -0.0708,-0.176991 -0.132744,-0.221239 -0.256638,-0.283185 z m 0,0 z m 1.530974,6.353984 c -0.230088,0.0708 -0.424779,0.123893 -0.60177,0.141593 -0.0354,-0.185841 -0.327434,-0.40708 -0.699115,-0.522124 0.141593,-0.02655 0.292035,-0.09735 0.274336,-0.185841 0.0088,-0.0177 -0.06195,-0.371682 -0.0531,-0.380531 0.362832,-0.06195 0.477876,-0.0885 0.79646,-0.159292 0.991151,-0.336284 1.787611,-0.539824 3.194691,-1.991151 0.920355,-1.097346 1.460178,-2.353983 1.592921,-3.761063 C 27.34675,11.764166 27.081263,10.392484 26.346749,9.0827492 25.700731,8.0562002 24.948519,7.135846 23.214005,6.3482351 21.789226,5.746465 20.258252,5.7641642 19.001615,6.0915979 17.665331,6.4455803 16.68303,7.1535451 15.806923,8.0650498 14.762675,9.348236 14.346746,10.507528 14.222852,11.834962 c -0.123894,1.548673 0.247788,2.734514 0.867257,3.840709 0.433628,0.761063 1.504425,2.061948 3.123895,2.716815 0.681416,0.256638 1.053097,0.39823 1.584071,0.442478 l -0.0531,0.336284 c -0.0354,0.168141 0.345132,0.203539 0.336283,0.212389 -0.40708,0.0885 -0.716814,0.39823 -0.761062,0.530974 -0.761062,-0.132744 -0.716815,-0.159292 -1.539824,-0.442478 -1.60177,-0.707965 -2.893806,-1.876107 -3.690266,-3.23009 -0.769912,-1.327434 -1.141593,-2.778762 -1.035399,-4.504426 0.21239,-1.707965 0.823009,-3.2212397 1.893806,-4.4070807 1.106195,-1.2300889 2.247788,-1.9203545 3.743364,-2.353983 0.884956,-0.1946903 1.115045,-0.2477877 2.035399,-0.2654868 0.831858,0.026549 1.743363,0.088496 2.929204,0.5929205 1.761063,0.7610622 2.716815,1.6991156 3.681417,3.2035408 0.80531,1.4336287 1.185841,3.0265492 1.00885,4.4867272 -0.0531,1.168142 -0.628319,3.044248 -1.876107,4.442479 -1.371682,1.495575 -2.504425,1.964602 -3.761063,2.336284 z m 0,0 z m -4.088497,-1.539824 -0.575221,-0.247787 c 0.185841,-0.345133 0.690266,-0.159293 0.575221,0.247787 z m 0,0 z m 0,-0.442478 c -0.0531,-0.0088 -0.212389,-0.106195 -0.265486,-0.115044 l 1.858407,-4.292037 c 0.06195,-0.08849 0.150443,-0.0177 0.132744,0.06195 z m 0,0 z m -3.088496,-2.017699 c -0.115044,-0.168142 -0.221239,-0.345133 -0.318584,-0.539824 0.292035,-0.168141 0.672566,0.265487 0.318584,0.539824 z m 0,0 z m 4.053099,-3.42478 -4.654869,-0.283186 0.02655,-0.336283 4.637169,0.486725 c 0.150443,0.09735 -0.0088,0.132744 -0.0088,0.132744 z m 0,0 z m 2.097345,0.646018 c 0.0708,-0.115045 0.115045,-0.194691 0.150443,-0.336284 l 4.734514,0.469027 c 0.0885,0.123894 0.132744,0.159292 0.318585,0.21239 -0.06195,0.911504 -0.743364,2.300885 -1.194691,2.80531 -0.0708,-0.04425 -0.159292,-0.123894 -0.362832,-0.0885 z m 0,0 z m -0.06195,0.07965 3.548674,3.044248 c -0.141593,0.07965 -0.150443,0.159292 -0.185841,0.230089 l -3.460178,-3.168143 c -0.0708,-0.0708 0.0177,-0.168141 0.09735,-0.106194 z m 0,0 z M 16.27595,8.4898286 c -0.176991,0.1592921 -0.327434,0.1061948 -0.424779,0.035398 0.123894,-0.1504425 0.194691,-0.2566373 0.39823,-0.4690267 0.168142,0.1592921 0.09735,0.3451328 0.02655,0.4336284 z m 0,0 z m 5.513276,3.4601784 4.150444,-2.3097356 c 0.168141,0.044248 0.256637,0.035398 0.380531,-0.026549 0.380531,0.7168146 0.646018,1.8849566 0.637168,2.8318596 -0.123894,0.0089 -0.230089,0.0354 -0.345133,0.150442 l -4.743364,-0.300885 c 0.0088,-0.0708 -0.0531,-0.283185 -0.07965,-0.345132 z m 0,0 z m 4.83186,0.911504 c 0.0177,-0.106194 0.106194,-0.283186 0.327433,-0.274336 0,0.09734 0,0.150442 -0.0088,0.300885 -0.04425,0.39823 -0.0177,0.0177 -0.04425,0.318584 -0.238938,-0.04425 -0.265487,-0.247788 -0.274336,-0.345133 z m 0,0 z m -0.09734,0.176991 c -0.0531,-0.09734 -0.02655,-0.256637 0.0088,-0.327433 l -4.663718,-0.309735 c -0.06195,0.0088 -0.0885,0.0885 -0.0088,0.132744 z m 0,0 z M 21.320204,11.392484 23.21401,7.0296512 c 0.168142,-0.070796 0.19469,-0.079646 0.309735,-0.2389381 0.973451,0.5486727 1.575221,0.9734516 2.345133,2.0619475 -0.176991,0.141593 -0.176991,0.2300886 -0.20354,0.3185842 L 21.60339,11.640272 c -0.0708,-0.106195 -0.19469,-0.185841 -0.283186,-0.247788 z m 0,0 z m 4.353984,-2.0707967 c 0.0088,0.097345 0.07965,0.1769912 0.141593,0.2389381 l -4.070798,2.2920356 c -0.07965,0.0354 -0.150442,-0.06195 -0.07965,-0.123893 z m 0,0 z M 14.86002,11.560626 c -0.07965,-0.0885 -0.141592,-0.115044 -0.274336,-0.150443 0.159292,-1.168141 0.619469,-1.9911506 1.176992,-2.7787614 0.106194,0.088496 0.221239,0.097345 0.318584,0.088496 l 3.672567,3.0530974 c -0.04425,0.0708 -0.115044,0.194691 -0.132743,0.336284 z m 0,0 z m -0.0177,0.318584 c -0.0177,0.221239 -0.20354,0.318584 -0.327433,0.300885 0,-0.168141 0.0177,-0.451327 0.0531,-0.619469 0.09735,0.0177 0.283186,0.07965 0.274336,0.318584 z m 0,0 z m 4.318586,-5.1946916 c -0.150443,0.035398 -0.327434,-0.017699 -0.398231,-0.221239 0.132744,-0.044248 0.230089,-0.061947 0.309735,-0.088496 0.115044,-0.035398 0.19469,-0.061947 0.300885,-0.079646 0.06195,0.1858407 -0.0885,0.3539824 -0.212389,0.389381 z m 0,0 z m -0.168142,0.1150443 c 0.0708,0.00885 0.141593,0 0.19469,-0.017699 0.07965,-0.017699 0.106195,-0.035398 0.185841,-0.088496 l 1.106195,4.5575233 c 0.0177,0.0531 -0.0708,0.159292 -0.141593,0.04425 z m 0,0 z m 1.247788,4.5398243 c -0.09734,0.04425 -0.150443,0.06195 -0.247788,0.159292 L 16.47949,8.2685896 C 16.47064,8.0915984 16.399844,8.020802 16.337897,7.958855 c 0.893806,-0.8141595 1.318584,-1.0619472 2.318585,-1.4601774 0.04425,0.1238939 0.115044,0.2035399 0.230088,0.2654868 z m 0,0 z m 0.840708,-0.06195 1.752213,-4.3451339 c 0.04425,0.035398 0.123894,0.097345 0.256637,0.1061947 l -1.867257,4.3008862 c -0.06195,0.0885 -0.168142,0.0088 -0.141593,-0.06195 z m 0,0 z m -0.106195,-0.02655 c -0.141593,-0.02655 -0.238938,-0.02655 -0.38938,-0.0177 L 19.435243,6.6137219 c 0.0354,-0.061947 0.106195,-0.1681416 0.06195,-0.3451328 0.884956,-0.2123895 2.185841,-0.1946903 3.194691,0.1769912 -0.02655,0.1858407 -0.0088,0.2654868 0.0531,0.3893806 z m 0,0 z m -0.247787,1.061948 c -0.04425,0 -0.06195,0.0177 -0.06195,0.0531 0,0.04425 0.02655,0.06195 0.06195,0.06195 0.02655,0 0.0531,-0.0177 0.0531,-0.0531 0,-0.02655 -0.0088,-0.06195 -0.0531,-0.06195 z m 0,0 z m 1.929204,6.000001 c -0.353983,0.106195 -0.336283,0.09734 -0.61062,0.150443 -0.106195,-0.336284 0.442478,-0.584071 0.61062,-0.150443 z m 0,0 z m 3.185841,-8.9292058 c -0.106194,-0.221239 0.0088,-0.362832 0.106195,-0.4159293 0.0708,0.1150443 0.09735,0.1415929 0.159292,0.2654868 0.0708,0.1238938 0.123894,0.221239 0.141593,0.2654868 -0.185841,0.088496 -0.336283,0 -0.40708,-0.1150443 z m 0,0 z M 23.399846,6.7199166 c -0.0708,0.1150443 -0.185841,0.2300886 -0.40708,0.1592921 -0.123894,-0.070797 -0.221239,-0.2035399 -0.168142,-0.3893806 0.0531,0.017699 0.247788,0.097345 0.292036,0.1150443 0.274336,0.1061947 0.159292,0.061947 0.283186,0.1150442 z m 0,0 z M 10.028161,14.622574 c 0.123894,0 0.221239,0.09735 0.221239,0.221239 0,0.123894 -0.09734,0.221239 -0.221239,0.221239 -0.1327437,0 -0.2300888,-0.09734 -0.2300888,-0.221239 0,-0.123894 0.097345,-0.221239 0.2300888,-0.221239 z m 0,0 z m 0.0088,-0.141593 c 0.20354,0 0.362832,0.168141 0.362832,0.362832 0,0.20354 -0.159292,0.362832 -0.362832,0.362832 -0.2035396,0 -0.3716812,-0.159292 -0.3716812,-0.362832 0,-0.194691 0.1681416,-0.362832 0.3716812,-0.362832 z m 0,0 z m -0.4336282,-1.00885 c 0.1238939,-0.0354 0.1681417,-0.04425 0.3097346,-0.04425 0.7787616,0 1.3982306,0.628319 1.3982306,1.389381 0,0.185841 -0.0354,0.353982 -0.09734,0.513275 l 0.300885,0.265486 -0.371682,0.539823 -0.371681,-0.212389 c -0.238938,0.176991 -0.530974,0.283186 -0.8584076,0.283186 -0.070796,0 -0.088496,0.0088 -0.159292,0 0.00885,-0.0354 0.00885,-0.0708 0.00885,-0.07965 0.061947,0.0088 0.079646,0 0.141593,0 0.3008856,0 0.5663726,-0.09735 0.7876116,-0.265487 l -0.628319,-0.469027 c 0.256637,-0.0088 0.59292,-0.265486 0.442478,-0.646017 l 0.619469,0.513274 c 0.0354,-0.132743 0.06195,-0.265487 0.06195,-0.40708 0,-0.707965 -0.575221,-1.274336 -1.2831866,-1.274336 -0.1327434,0 -0.1681417,0 -0.2831859,0.04425 -0.00885,-0.0354 -0.017699,-0.132743 -0.017699,-0.150442 z m 0,0 z m 1.4336292,1.530974 -0.345133,-0.283186 c -0.0089,-0.283186 -0.0885,-0.548673 -0.274337,-0.548673 l -0.5221237,-0.0088 C 9.7537754,13.967755 9.6741293,13.87041 9.6475806,13.719968 c 0.1061948,-0.0354 0.1327434,-0.0354 0.2566373,-0.0354 0.6814161,0 1.1504431,0.477877 1.1504431,1.159293 0,0.0708 0,0.106194 -0.0177,0.159292 z m 0,0 z m -0.557523,0.849558 c -0.18584,0.115044 -0.345133,0.168141 -0.5929202,0.168141 -0.044248,0 -0.061947,0.0089 -0.1150443,0 l 0.017699,-0.0354 c 0.017699,-0.07965 0.044248,-0.353982 -0.1238938,-0.345133 0.1061947,0 0.097345,-0.20354 0.1769912,-0.20354 l 0.061947,0.0088 z m 0,0 z M 8.5768329,15.684521 c -0.1504425,0.0708 -0.2123895,0.132743 -0.2035399,0.292035 l 0.2389381,2.805311 c -0.1858407,0.07965 -0.4513275,0.283186 -0.442478,0.681416 0.00885,0.345133 0.2123895,0.734514 0.7256639,0.787611 0.3893807,0.04425 0.884956,-0.230089 0.8761065,-0.734514 -0.00885,-0.318584 -0.141593,-0.584071 -0.442478,-0.743363 l 0.2743363,-2.796461 c 0.017699,-0.18584 -0.079646,-0.256637 -0.1858407,-0.300885 z m 0,0 z m -0.00885,-0.0885 h 0.8495578 c 0.1238938,0 0.2389381,-0.06195 0.2389381,-0.150442 L 9.6299305,14.171246 C 9.4883376,14.073901 9.337895,13.445582 9.3644437,13.250892 c 0.026549,-0.238938 0.442478,-1.132744 0.1238939,-1.123894 l -0.9911508,0.0088 c -0.3274337,0 0.053097,0.769912 0.079646,1.115045 0.026549,0.40708 -0.088496,0.707965 -0.2566373,0.920354 l 0.035398,1.265487 c 0,0.0708 0.097345,0.150443 0.2123894,0.159292 z m 0,0 z m 0.7964604,-3.61947 v -1.061947 c -0.00885,-0.159292 -0.2035399,-0.256637 -0.3982302,-0.247788 -0.2035399,0 -0.3805311,0.0708 -0.3805311,0.238939 v 1.061947 c 0.061947,0.0088 0.6991153,0.0088 0.7787613,0.0088 z"
       id="path13346"
       style="stroke-width:0.00884956" />
    <g
       class="com.sun.star.drawing.TextShape"
       id="g13451"
       transform="matrix(0.00884956,0,0,0.00884956,-97.15771,-109.5987)">
      <g
         id="id276">
        <rect
           class="BoundingBox"
           stroke="none"
           fill="none"
           x="12261"
           y="16231"
           width="2021"
           height="396"
           id="rect13440" />
        <text
           class="TextShape"
           id="text13448"><tspan
             class="TextParagraph"
             font-family="'Arial Rounded MT Bold'"
             font-size="353px"
             font-weight="400"
             id="tspan13446"><tspan
               class="TextPosition"
               x="12261"
               y="16549"
               id="tspan13444"><tspan
                 fill="#1b1918"
                 stroke="none"
                 id="tspan13442">ROKK</tspan></tspan></tspan></text>
      </g>
    </g>
    <path
       style="display:inline;stroke-width:0.00884956;fill:#ffffff"
       d="m 26.523746,13.038502 c -0.0531,-0.09734 -0.02655,-0.256637 0.0088,-0.327433 l -4.663718,-0.309735 c -0.06195,0.0088 -0.0885,0.0885 -0.0088,0.132744 z"
       id="path5867" />
    <path
       style="display:inline;stroke-width:0.00884956;fill:#ffffff"
       d="m 25.187457,16.728769 c 0.256637,-0.265487 0.39823,-0.469027 0.415929,-0.477876 -0.380531,-0.221239 -0.672566,0.19469 -0.415929,0.477876 z"
       id="path5783" />
  </g>
  <g
     inkscape:label="Frame"
     inkscape:groupmode="layer"
     id="layer1"
     style="display:inline"
     sodipodi:insensitive="true">
    <path
       id="rect868"
       style="fill:#000000;stroke:none;stroke-width:1.72726;stroke-linecap:round;stroke-linejoin:round;paint-order:stroke markers fill"
       d="M 0,0 V 151.18164 H 120.94531 V 0 Z m 15.117188,4.1582031 h 90.708982 c 6.07219,0 10.96094,4.8867952 10.96094,10.9589849 V 136.0625 c 0,6.07219 -4.88875,10.96094 -10.96094,10.96094 H 15.117188 c -6.0721897,0 -10.9589849,-4.88875 -10.9589849,-10.96094 V 15.117188 c 0,-6.0721897 4.8867952,-10.9589849 10.9589849,-10.9589849 z"
       transform="scale(0.26458333)" />
  </g>
</svg>
